<svg id="Logo-6_Grey_100x100" data-name="Logo-6 (Grey) 100x100" xmlns="http://www.w3.org/2000/svg" xmlns:xlink="http://www.w3.org/1999/xlink" viewBox="0 0 100 100"><defs><style>.cls-1{stroke:#948f8f;stroke-miterlimit:10;stroke-width:0.75px;fill:url(#linear-gradient);}.cls-2{fill:#989898;}.cls-3{fill:#747474;}.cls-4{fill:#535353;}.cls-5{fill:#9c9c9c;}</style><linearGradient id="linear-gradient" x1="50" y1="15.18" x2="50" y2="94.72" gradientUnits="userSpaceOnUse"><stop offset="0" stop-color="#fff"/><stop offset="1" stop-color="#c4c4c4"/></linearGradient></defs><title>CROSSMARK_logo_4</title><rect class="cls-1" x="5" y="5" width="90" height="90" rx="2" ry="2"/><polygon class="cls-2" points="35.95 65.11 64.05 46.38 64.05 23.91 35.95 23.91 35.95 65.11"/><polygon class="cls-3" points="64.05 65.11 35.95 46.38 35.95 23.91 64.05 23.91 64.05 65.11"/><path class="cls-4" d="M50,19A31,31,0,1,0,81,50,31,31,0,0,0,50,19Zm0,54.41A23.41,23.41,0,1,1,73.41,50,23.41,23.41,0,0,1,50,73.41Z"/><path class="cls-5" d="M67.18,65.86a23.38,23.38,0,0,1-38.9-24.57l-6.49-4.1A31,31,0,0,0,73.69,70Z"/></svg>